{"title":"VICE Does America S01E04 The Mechanic Corpse and Rodeo 720p WEB-","uid":15449061,"size":709252674,"categoryP":"other","categoryS":"other","magnet":"?xt=urn:btih:f3d0161c9b4b5cece544f36c76ac82e246fa48c9&amp;dn=VICE+Does+America+S01E04+The+Mechanic+Corpse+and+Rodeo+720p+WEB-&amp;tr=udp%3A%2F%2Ftracker.leechers-paradise.org%3A6969&amp;tr=udp%3A%2F%2Fzer0day.ch%3A1337&amp;tr=udp%3A%2F%2Fopen.demonii.com%3A1337&amp;tr=udp%3A%2F%2Ftracker.coppersurfer.tk%3A6969&amp;tr=udp%3A%2F%2Fexodus.desync.com%3A6969","seeders":2,"leechers":0,"uploader":"shtihl22","files":1,"time":1469925952,"description":"**********Description***********\r\n\r\n\r\nGeneral\r\nUnique ID : 199252658170687209434715557638521467534 (0x95E6AA84ACF014A391A1A883B38BB28E)\r\nComplete name : VICE.Does.America.S01E04.The.Mechanic.Corpse.and.Rodeo.720p.WEB-DL.AAC2.0.H.264-Coo7.mkv\r\nFormat : Matroska\r\nFormat version : Version 4 / Version 2\r\nFile size : 676 MiB\r\nDuration : 22 min\r\nOverall bit rate : 4 201 kb/s\r\nEncoded date : UTC 2016-07-28 17:17:11\r\nWriting application : mkvmerge v8.8.0 ('Wind at my back') 64bit\r\nWriting library : libebml v1.3.3 + libmatroska v1.4.4\r\n\r\nVideo\r\nID : 2\r\nFormat : AVC\r\nFormat/Info : Advanced Video Codec\r\nFormat profile :   \r\nFormat settings, CABAC : No\r\nFormat settings, ReFrames : 2 frames\r\nCodec ID : V_MPEG4/ISO/AVC\r\nDuration : 22 min\r\nBit rate : 4 049 kb/s\r\nWidth : 1 280 pixels\r\nHeight : 716 pixels\r\nDisplay aspect ratio : 16:9\r\nFrame rate mode : Constant\r\nFrame rate : 23.976 (24000/1001) FPS\r\nColor space : YUV\r\nChroma subsampling : 4:2:0\r\nBit depth : 8 bits\r\nScan type : Progressive\r\nBits/(Pixel*Frame) : 0.184\r\nStream size : 652 MiB (96%)\r\nLanguage : English\r\nDefault : Yes\r\nForced : No\r\nColor range : Limited\r\nColor primaries : BT.709\r\nTransfer characteristics : BT.709\r\nMatrix coefficients : BT.709\r\n\r\nAudio\r\nID : 1\r\nFormat : AAC\r\nFormat/Info : Advanced Audio Codec\r\nFormat profile : LC\r\nCodec ID : A_AAC\r\nDuration : 22 min\r\nBit rate : 150 kb/s\r\nChannel(s) : 2 channels\r\nChannel positions : Front: L R\r\nSampling rate : 48.0 kHz\r\nFrame rate : 46.875 FPS (1024 spf)\r\nCompression mode : Lossy\r\nStream size : 24.1 MiB (4%)\r\nLanguage : English\r\nDefault : Yes\r\nForced : No\r\n\r\nText\r\nID : 3\r\nFormat : UTF-8\r\nCodec ID : S_TEXT/UTF8\r\nCodec ID/Info : UTF-8 Plain Text\r\nDuration : 22 min\r\nBit rate : 153 b/s\r\nCount of elements : 512\r\nStream size : 25.0 KiB (0%)\r\nLanguage : English\r\nDefault : Yes\r\nForced : No\r\n\r\n=======================================\r\n \nhttps://thepiratebay.org/user/shtihl22\r\n\r\n=======================================","torrent":{"xt":"urn:btih:f3d0161c9b4b5cece544f36c76ac82e246fa48c9","amp;dn":"VICE+Does+America+S01E04+The+Mechanic+Corpse+and+Rodeo+720p+WEB-","amp;tr":["udp%3A%2F%2Ftracker.leechers-paradise.org%3A6969","udp%3A%2F%2Fzer0day.ch%3A1337","udp%3A%2F%2Fopen.demonii.com%3A1337","udp%3A%2F%2Ftracker.coppersurfer.tk%3A6969","udp%3A%2F%2Fexodus.desync.com%3A6969"],"infoHash":"f3d0161c9b4b5cece544f36c76ac82e246fa48c9","infoHashBuffer":{"type":"Buffer","data":[243,208,22,28,155,75,92,236,229,68,243,108,118,172,130,226,70,250,72,201]},"announce":[],"urlList":[]}}